<?xml version="1.0" encoding="UTF-8"?>
<svg width="225px" height="190px" viewBox="0 0 225 190" version="1.1" xmlns="http://www.w3.org/2000/svg" xmlns:xlink="http://www.w3.org/1999/xlink">
    <!-- Generator: Sketch 40.3 (33839) - http://www.bohemiancoding.com/sketch -->
    <title>Group 9</title>
    <desc>Created with Sketch.</desc>
    <defs></defs>
    <g id="Page-1" stroke="none" stroke-width="1" fill="none" fill-rule="evenodd">
        <g id="Screen1-Copy-2" transform="translate(-928.000000, -275.000000)">
            <g id="Group-9" transform="translate(928.000000, 275.000000)">
                <g id="Group-5" fill="#71217B">
                    <g id="Group-6">
                        <g id="Page-1">
                            <g id="Group-25" transform="translate(0.000000, 0.152290)">
                                <path d="M43.6858409,126.179407 L104.326068,126.179407 L104.326068,106.93616 L43.6858409,106.93616 L43.6858409,126.179407 Z M95.5435158,114.440214 C96.9525795,114.440214 98.0839612,115.401924 98.0839612,116.553268 C98.0839612,117.729445 96.9525795,118.677611 95.5435158,118.677611 C94.1436316,118.677611 93.0007754,117.729445 93.0007754,116.553268 C93.0007754,115.401924 94.1436316,114.440214 95.5435158,114.440214 L95.5435158,114.440214 Z M88.0690525,114.440214 C89.4804111,114.440214 90.6117928,115.401924 90.6117928,116.553268 C90.6117928,117.729445 89.4804111,118.677611 88.0690525,118.677611 C86.6714632,118.677611 85.5263121,117.729445 85.5263121,116.553268 C85.5263121,115.401924 86.6714632,114.440214 88.0690525,114.440214 L88.0690525,114.440214 Z M80.5968841,114.440214 C81.9944733,114.440214 83.1373295,115.401924 83.1373295,116.553268 C83.1373295,117.729445 81.9944733,118.677611 80.5968841,118.677611 C79.1855255,118.677611 78.0403744,117.729445 78.0403744,116.553268 C78.0403744,115.401924 79.1855255,114.440214 80.5968841,114.440214 L80.5968841,114.440214 Z M50.5751068,115.015886 C50.5751068,113.726832 51.6307571,112.677077 52.9526149,112.677077 L67.6192697,112.677077 C68.9158837,112.677077 69.9967779,113.726832 69.9967779,115.015886 L69.9967779,118.104196 C69.9967779,119.404538 68.9158837,120.440747 67.6192697,120.440747 L52.9526149,120.440747 C51.6307571,120.440747 50.5751068,119.404538 50.5751068,118.104196 L50.5751068,115.015886 Z" id="Fill-1"></path>
                                <path d="M43.6858409,102.344262 L104.326068,102.344262 L104.326068,83.0897268 L43.6858409,83.0897268 L43.6858409,102.344262 Z M69.9967779,94.2667936 C69.9967779,95.5558473 68.9158837,96.5920569 67.6192697,96.5920569 L52.9526149,96.5920569 C51.6307571,96.5920569 50.5751068,95.5558473 50.5751068,94.2667936 L50.5751068,91.167195 C50.5751068,89.8781412 51.6307571,88.8396741 52.9526149,88.8396741 L67.6192697,88.8396741 C68.9158837,88.8396741 69.9967779,89.8781412 69.9967779,91.167195 L69.9967779,94.2667936 Z M80.5968841,94.8289204 C79.1855255,94.8289204 78.0403744,93.8784972 78.0403744,92.7294107 C78.0403744,91.5532339 79.1855255,90.6028107 80.5968841,90.6028107 C81.9944733,90.6028107 83.1373295,91.5532339 83.1373295,92.7294107 C83.1373295,93.8784972 81.9944733,94.8289204 80.5968841,94.8289204 L80.5968841,94.8289204 Z M88.0690525,94.8289204 C86.6714632,94.8289204 85.5263121,93.8784972 85.5263121,92.7294107 C85.5263121,91.5532339 86.6714632,90.6028107 88.0690525,90.6028107 C89.4804111,90.6028107 90.6117928,91.5532339 90.6117928,92.7294107 C90.6117928,93.8784972 89.4804111,94.8289204 88.0690525,94.8289204 L88.0690525,94.8289204 Z M95.5435158,94.8289204 C94.1436316,94.8289204 93.0007754,93.8784972 93.0007754,92.7294107 C93.0007754,91.5532339 94.1436316,90.6028107 95.5435158,90.6028107 C96.9525795,90.6028107 98.0839612,91.5532339 98.0839612,92.7294107 C98.0839612,93.8784972 96.9525795,94.8289204 95.5435158,94.8289204 L95.5435158,94.8289204 Z" id="Fill-3"></path>
                                <path d="M43.6858409,150.014552 L104.326068,150.014552 L104.326068,130.771305 L43.6858409,130.771305 L43.6858409,150.014552 Z M88.0690525,138.273101 C89.4551673,138.273101 90.5613052,139.198692 90.6117928,140.322945 L90.6117928,140.399701 C90.6117928,141.212415 90.0656085,141.912251 89.2509219,142.26217 C88.8952136,142.424712 88.5004922,142.512756 88.0690525,142.512756 C87.6376128,142.512756 87.2428914,142.424712 86.8871831,142.26217 C86.0747913,141.912251 85.5263121,141.212415 85.5263121,140.399701 L85.5263121,140.322945 C85.5790947,139.198692 86.6967071,138.273101 88.0690525,138.273101 L88.0690525,138.273101 Z M80.5968841,138.273101 C81.9692295,138.273101 83.0868419,139.198692 83.1373295,140.322945 L83.1373295,140.399701 C83.1373295,141.212415 82.5911452,141.912251 81.7787535,142.26217 C81.4230452,142.424712 81.0283238,142.512756 80.5968841,142.512756 C80.1769188,142.512756 79.770723,142.424712 79.4150147,142.26217 C78.600328,141.923539 78.0403744,141.223702 78.0403744,140.399701 L78.0403744,140.322945 C78.090862,139.198692 79.2107693,138.273101 80.5968841,138.273101 L80.5968841,138.273101 Z M50.5751068,141.937084 L50.5751068,138.848773 C50.5751068,137.55972 51.6307571,136.509965 52.9526149,136.509965 L67.6192697,136.509965 C68.9158837,136.509965 69.9967779,137.55972 69.9967779,138.848773 L69.9967779,141.937084 L69.9577647,142.26217 C69.8040069,143.411256 68.8011391,144.275893 67.6192697,144.275893 L52.9526149,144.275893 C51.7432068,144.275893 50.7518134,143.411256 50.6141199,142.26217 L50.5751068,141.937084 Z M98.0839612,140.399701 C98.0839612,141.212415 97.5377769,141.912251 96.7253852,142.26217 C96.3696769,142.424712 95.9749555,142.512756 95.5435158,142.512756 C95.1097812,142.512756 94.7173547,142.424712 94.3616464,142.26217 C93.5469597,141.912251 93.0007754,141.212415 93.0007754,140.399701 L93.0007754,140.322945 C93.0512631,139.198692 94.1711704,138.273101 95.5435158,138.273101 C96.9273357,138.273101 98.0334736,139.198692 98.0839612,140.322945 L98.0839612,140.399701 Z" id="Fill-4"></path>
                                <path d="M211.511064,71.5040982 C211.260921,71.5040982 210.994714,71.6102025 210.710147,71.8743343 C210.549505,72.0233318 210.005615,72.9714974 210.556389,73.5945777 L210.719327,73.7774382 C217.904634,81.7397719 222.287877,92.7136603 222.287877,104.513807 C222.287877,122.693755 212.183468,137.85989 197.565006,143.975558 L197.553531,143.986846 C193.078492,145.838026 188.199551,146.862948 183.038339,146.862948 L108.963815,146.862948 L108.963815,149.364299 L183.038339,149.364299 C183.775,149.364299 184.500185,149.339466 185.225371,149.301088 C195.215036,148.775082 204.188064,144.650561 211.052086,138.06081 C219.554661,129.908843 224.828323,117.993562 224.828323,104.513807 C224.828323,95.0118332 222.122645,86.0110324 217.431886,78.5340691 C216.130682,76.4345595 214.671131,74.4569569 213.069296,72.6306093 C212.596548,72.0933154 212.096262,71.5040982 211.511064,71.5040982 M134.765286,0.725791475 C112.814644,0.725791475 92.5300931,13.1287009 82.691891,32.4464469 C77.4687168,29.1210946 71.4193814,27.3715032 65.1015437,27.3715032 C58.2650604,27.3715032 51.7452722,29.4078018 46.2535956,33.2839932 L45.9988626,33.4713688 C45.6569237,33.7219554 45.3126899,33.972542 44.9822254,34.2344163 C44.6402865,34.5098359 44.2960527,34.7852554 43.9655883,35.0855079 C43.0751702,35.8237225 42.2375346,36.6364359 41.4618611,37.4739822 C36.2754051,43.0004333 33.3149944,50.2380977 33.3149944,57.7647267 C33.3149944,59.7784499 33.5307143,61.7921731 33.9506795,63.7675182 C33.1245184,63.9661815 32.3098317,64.1919352 31.5089144,64.4425218 C27.2909029,65.7180303 23.3620478,67.6301644 19.8302089,70.0570169 C8.50491685,77.7710215 1.06946673,90.661559 0.560000698,104.965315 C0.560000698,105.163978 0.548526238,105.364899 0.560000698,105.56582 L0.548526238,105.590653 C0.534756886,105.789316 0.534756886,106.003782 0.534756886,106.21599 L0.534756886,106.841328 C0.534756886,107.053537 0.534756886,107.2522 0.548526238,107.466666 C0.548526238,107.690162 0.560000698,107.902371 0.560000698,108.128124 C0.713758463,112.191691 1.41140564,116.092716 2.58180056,119.767986 L2.59556992,119.817652 C4.18363519,124.732311 6.6231054,129.23384 9.75104322,133.159697 C16.5875265,141.724793 26.7171799,147.57633 38.4486679,149.014381 L38.4486679,146.488197 C32.4635895,145.711604 26.9351946,143.700138 22.1044469,140.735992 C18.7103016,138.661315 15.6741595,136.096753 13.0671622,133.159697 C7.2840343,126.619612 3.64892535,118.192225 3.14175421,108.816673 C3.1165104,108.378711 3.10274105,107.940749 3.09126659,107.491499 L3.09126659,107.466666 C3.07749724,107.152868 3.07749724,106.841328 3.07749724,106.516243 L3.07749724,106.21599 L3.09126659,106.191158 C3.07749724,105.778028 3.09126659,105.364899 3.1165104,104.965315 C3.42173104,96.4002186 6.36837239,88.3724163 11.2128894,81.8097556 C17.0579794,73.8699972 25.6500551,68.0432937 35.7292208,65.9302388 L36.4291629,65.7812414 L37.0143603,65.6548193 L36.6953704,64.392856 C36.1491861,62.2165901 35.8577348,59.9906584 35.8577348,57.7647267 C35.8577348,55.7893817 36.0734546,53.8275818 36.5186637,51.9267355 L36.5439075,51.8274039 C37.8772397,45.9871551 41.1818842,40.6367919 45.9736188,36.6973894 C46.3040832,36.397137 46.648317,36.123975 47.0040253,35.8846761 C47.244989,35.6724676 47.4859526,35.4986372 47.7406856,35.3225493 L48.0068931,35.1351737 C53.002873,31.6833993 58.91222,29.8705969 65.1015437,29.8705969 C65.2667759,29.8705969 65.4320082,29.8705969 65.5972404,29.8841421 C71.7108327,29.9721861 77.5192044,31.8346543 82.4509273,35.3112616 L82.6666472,35.4602591 L83.6970537,36.1849285 L84.3442133,34.8349212 C88.2340552,26.6829544 94.0424269,19.7568302 101.071681,14.4922534 L101.172656,14.4177547 C110.694163,7.30425492 122.450895,3.22714271 134.765286,3.22714271 L134.994775,3.22714271 C149.789944,3.29035375 163.694694,9.00418044 174.166287,19.3437009 C175.348156,20.5063325 176.468063,21.71863 177.521419,22.9693056 C181.461748,27.6085446 184.559853,32.787335 186.733115,38.3205587 C186.928181,38.8149594 187.400929,39.1264995 187.91269,39.1264995 C188.029729,39.1264995 188.149064,39.1106967 188.266103,39.0768337 C188.97752,38.8736553 189.372241,38.1128653 189.108329,37.431089 C186.235124,30.0715177 181.789918,23.3169664 175.972367,17.5805643 C173.048674,14.6931742 169.870249,12.1534449 166.489873,9.97943652 L166.464629,9.96589129 C157.110649,3.95181215 146.191553,0.725791475 134.765286,0.725791475" id="Fill-13"></path>
                                <path d="M75.3805945,67.3776149 C75.2084776,67.3776149 75.0363607,67.3798724 74.8665387,67.386645 C70.8986704,67.5356425 67.2635615,69.4048833 64.8883482,72.5135121 C64.4844473,73.0440333 64.596897,73.7957932 65.1384915,74.1953773 C65.3633909,74.3601775 65.6227137,74.4414488 65.8820365,74.4414488 C66.2492192,74.4414488 66.6095173,74.2789062 66.8435962,73.9696236 C68.78278,71.4321517 71.7523703,69.9060566 74.988168,69.781892 C75.1258615,69.7773769 75.2612602,69.7751194 75.3989537,69.7751194 C78.4236213,69.7751194 81.3266597,71.0145073 83.4127166,73.2201212 C83.6559751,73.4774804 83.9864396,73.6061601 84.316904,73.6061601 C84.6106502,73.6061601 84.9066913,73.5023134 85.1361805,73.2923624 C85.4092726,73.0417758 85.5354917,72.6986301 85.5171326,72.3622571 C85.5033632,72.0868375 85.3955033,71.8136755 85.1866681,71.5946944 C82.6347482,68.899195 79.0822554,67.3776149 75.3805945,67.3776149" id="Fill-14"></path>
                                <path d="M75.2826026,60.435688 C75.0255747,60.435688 74.7685468,60.440203 74.5115189,60.4492332 C68.8408408,60.6636992 63.5098066,63.2282615 59.8838772,67.4904917 C59.4501426,67.9961801 59.5258741,68.7524551 60.0445197,69.1791296 C60.2763038,69.3710202 60.5585755,69.4658368 60.8385523,69.4658368 C61.1827861,69.4658368 61.524725,69.3213544 61.7633938,69.0436774 C64.9509988,65.2916505 69.6417581,63.0341133 74.6354431,62.8467377 C74.8603425,62.8377076 75.0852419,62.8331925 75.3101414,62.8331925 C80.1179401,62.8331925 84.7788658,64.7498416 88.1936651,68.1542077 C88.4346288,68.3957642 88.7536188,68.5176712 89.0703139,68.5176712 C89.3778294,68.5176712 89.68305,68.4047943 89.917129,68.1767831 C90.1695671,67.9307115 90.2911964,67.5988535 90.2728373,67.2715106 C90.256773,66.9848034 90.1374387,66.7026113 89.917129,66.4813726 C86.0433513,62.6142114 80.7444456,60.435688 75.2826026,60.435688" id="Fill-15"></path>
                                <path d="M75.3684316,54.3726203 C74.9805949,54.3726203 74.5904632,54.3793929 74.2026265,54.3951956 C65.9915028,54.7089933 58.2393576,58.3707187 52.9129132,64.4615541 C52.4677042,64.9604698 52.5319612,65.7235174 53.0414272,66.1614796 C53.2755062,66.3601429 53.5623677,66.4549594 53.8446394,66.4549594 C54.1865783,66.4549594 54.5262223,66.3149921 54.7694809,66.0486027 C59.7264476,60.359609 66.6776756,57.0839225 74.3288455,56.7972152 C74.6730793,56.78367 75.0150182,56.7768974 75.3569572,56.7768974 C78.7350382,56.7768974 82.0809908,57.3909475 85.2089286,58.5716395 C86.1108211,58.8967248 87.0012392,59.2850212 87.8664135,59.7094382 C88.7040491,60.1338552 89.5302102,60.5966504 90.3311275,61.0978236 C91.9467315,62.1092003 93.4705398,63.2989224 94.8566546,64.6353844 C95.0953234,64.8724258 95.4074287,64.9875602 95.719534,64.9875602 C96.0339342,64.9875602 96.3483344,64.8679108 96.5847083,64.6353844 C96.8256719,64.3847978 96.9404165,64.0597124 96.9289421,63.7481723 C96.9036983,63.4479199 96.7889537,63.1612126 96.54799,62.9354589 C93.7390422,60.2218992 90.4458721,58.0975567 86.8750202,56.6459602 L86.8612508,56.6346725 C85.8951013,56.2463761 84.9037079,55.8964579 83.9008401,55.6074931 C82.8704336,55.3072407 81.8285526,55.0589116 80.7729023,54.871536 C79.0035406,54.5419355 77.1905759,54.3726203 75.3684316,54.3726203" id="Fill-16"></path>
                                <path d="M190.206664,71.8752373 C189.23363,71.8752373 188.361571,71.6901193 187.551474,71.4824259 C185.619175,70.9812526 182.491237,69.4687027 181.247406,65.1184285 C179.98751,60.754609 183.381655,57.5285883 183.978327,56.9032505 C184.487793,56.3659567 186.725313,54.3770664 190.346652,54.3657787 C190.968568,54.3657787 191.629497,54.4154445 192.329439,54.5531543 C192.455658,54.5779872 192.646134,54.6141078 192.914637,54.7021517 C193.091343,54.7405299 193.307063,54.8150286 193.550322,54.9030726 C194.883654,55.3907006 196.866441,56.5149541 198.137811,59.0795164 L198.213542,59.2420591 C198.697764,60.2918139 198.924959,61.2174041 199.002985,62.0301175 L199.014459,62.2174931 C199.078716,63.0663271 198.963972,63.818087 198.79874,64.4930906 C198.79874,64.4930906 198.787265,64.5540441 198.759726,64.6804662 C198.697764,64.9920064 198.518763,65.6918429 198.163055,66.5316467 C197.63064,67.7687771 196.66449,69.3197052 194.998398,70.3559148 C193.125767,71.5140314 191.56524,71.8752373 190.206664,71.8752373 M194.050608,43.8727457 C193.708669,43.8727457 193.554911,44.0510912 193.460821,44.2881326 C193.346076,44.5635521 193.281819,44.7509277 192.951355,45.5388082 C192.72416,46.0512691 192.480902,46.588563 192.278951,46.9881471 L192.177976,47.1755227 L191.985205,47.3628983 C191.909474,47.4125641 191.819973,47.4509422 191.693754,47.4509422 C191.620317,47.4531998 191.537701,47.4531998 191.450495,47.4531998 C191.310507,47.4531998 191.154454,47.4509422 190.996107,47.4509422 C190.837759,47.4486847 190.679412,47.4464271 190.532539,47.4464271 C190.319114,47.4464271 190.133227,47.4509422 190.016188,47.4622299 C189.876199,47.4757751 189.66048,47.4893203 189.43099,47.500608 C189.164783,47.500608 188.873332,47.5141533 188.655317,47.5389862 C188.636958,47.5389862 188.616304,47.5412437 188.597945,47.5412437 C188.317968,47.5412437 188.166505,47.3764435 188.072414,47.1890679 C187.893413,46.8007715 187.627205,46.2002666 187.537705,45.9993458 C187.42296,45.6878056 187.131509,44.9992568 186.966276,44.4619629 C186.837762,44.0917268 186.622043,43.9901377 186.401733,43.9901377 C186.319117,43.9901377 186.234206,44.0036829 186.15159,44.0240007 C185.860138,44.1120447 184.639256,44.4506753 184.042584,44.6245056 C183.457387,44.8005935 182.186016,45.2995092 181.869321,45.437219 C181.538857,45.5749288 181.359855,45.7623044 181.499844,46.1506008 C181.628358,46.5501849 181.894565,47.3877312 181.984066,47.7128165 C182.09881,48.1259458 182.238799,48.7896618 182.289286,49.1757006 C182.31453,49.4127421 182.21126,49.6023752 182.00931,49.6881616 C181.69032,49.8507043 181.194623,50.139669 180.712696,50.4647544 C180.242243,50.7762945 179.797034,51.1758786 179.491813,51.4648434 C179.365594,51.5799778 179.218721,51.652219 179.076438,51.652219 C179.019065,51.652219 178.961693,51.6386737 178.906616,51.6138408 C178.525664,51.4151776 177.814247,50.9772153 177.573283,50.8395056 C177.31855,50.6882506 176.772366,50.3767104 176.251426,50.013247 C176.083898,49.8981126 175.941615,49.8461892 175.815396,49.8461892 C175.652459,49.8461892 175.51706,49.9342331 175.386251,50.0900032 C175.170531,50.3767104 174.332896,51.4016323 174.052919,51.7650958 C173.786712,52.1263018 173.08677,53.0902702 172.692048,53.6140188 C172.400597,54.0158604 172.464854,54.2280689 172.756305,54.5147762 C173.061526,54.8014834 173.582466,55.2642785 174.052919,55.6412872 C174.34437,55.8896163 174.840067,56.2779127 175.170531,56.5036664 C175.386251,56.6526639 175.425264,56.8784176 175.349533,57.1041713 C175.184301,57.5150431 174.890555,58.2780907 174.750566,58.628009 C174.612873,58.9666395 174.408627,59.6777638 174.307652,60.0412273 C174.25487,60.2421481 174.089637,60.3911455 173.837199,60.4046907 C173.456247,60.4295237 172.972025,60.4791895 172.565829,60.4791895 C172.145864,60.4904772 171.204958,60.5288553 170.658774,60.5785211 C170.087346,60.6168992 170.137833,61.0164833 170.124064,61.3167358 C170.112589,61.6169882 170.087346,62.9286174 170.087346,63.3801248 C170.087346,63.8429199 170.062102,64.5924223 170.062102,65.4186809 C170.073576,66.1298051 170.608286,66.2178491 170.989238,66.2313943 C171.317408,66.2404244 171.776386,66.2968629 172.324865,66.2968629 C172.416661,66.2968629 172.508457,66.2968629 172.602547,66.2923478 C172.731061,66.2855752 172.859575,66.2833177 172.985794,66.2833177 C173.29331,66.2833177 173.593941,66.2991204 173.837199,66.3171807 C174.013906,66.3307259 174.218151,66.4684357 174.268639,66.6309784 C174.34437,66.8431869 174.408627,67.1818175 174.459115,67.3804807 C174.534846,67.7191113 174.638117,67.9426075 174.814823,68.4189479 C174.993825,68.9065759 175.159057,69.3558258 175.260032,69.6560783 C175.335764,69.8434538 175.260032,70.0059965 175.108569,70.1324186 C174.778105,70.4304135 174.167664,70.9180416 173.938174,71.1325076 C173.60771,71.43276 173.291015,71.6946344 172.820562,72.1438843 C172.260608,72.6947233 172.490098,72.9701429 172.630086,73.1688062 C172.76778,73.3832722 173.151026,73.8957331 173.786712,74.6836136 C174.408627,75.4579489 174.534846,75.7085355 174.993825,76.3338733 C175.246263,76.6837916 175.436739,76.7898958 175.597381,76.7898958 C175.730485,76.7898958 175.84523,76.7199122 175.959974,76.6589587 C176.212412,76.5212489 176.657621,76.2322842 177.31855,75.7446561 C177.763759,75.4195708 178.309944,75.0696525 178.628934,74.8709892 C178.709255,74.8213234 178.791871,74.7964905 178.872192,74.7964905 C178.957103,74.7964905 179.039719,74.8258385 179.110861,74.8822769 C179.441325,75.1328635 180.077011,75.6204916 180.52222,75.920744 C180.916941,76.1826183 181.412638,76.5573695 181.740807,76.769578 C182.059797,76.9592111 181.99554,77.1714196 181.945053,77.3700829 C181.844077,77.7967574 181.704089,78.345339 181.628358,78.6839696 C181.550331,78.984222 181.323137,79.7337244 181.219867,80.345517 C181.144135,80.833145 181.373625,80.921189 181.740807,81.047611 C182.110285,81.1717756 182.569263,81.320773 183.090204,81.4471951 C183.622619,81.5713597 184.893989,82.0725329 185.28871,82.1854098 C185.545738,82.2599085 185.795881,82.3140894 186.004717,82.3140894 C186.107987,82.3140894 186.199782,82.3005442 186.280104,82.2711962 C186.521067,82.1966975 186.622043,81.9099903 186.826288,81.5352391 C187.042008,81.1469427 187.308215,80.471939 187.461973,80.072355 C187.613436,79.6705133 187.74195,79.3973513 187.868169,79.0970989 C187.95308,78.8803753 188.15503,78.7449231 188.329442,78.7449231 C188.336327,78.7449231 188.343212,78.7449231 188.352391,78.7471806 C188.59565,78.7607258 188.912345,78.7720135 189.258874,78.7720135 C189.472298,78.7720135 189.699493,78.7674984 189.926687,78.7584683 C190.472871,78.7336354 191.097082,78.6952573 191.464265,78.6839696 C191.654741,78.6839696 191.794729,78.7584683 191.923243,79.0203426 C192.012744,79.1964305 192.177976,79.559894 192.304195,79.8578889 C192.430414,80.1716866 192.965124,81.4833157 193.091343,81.7587353 C193.219857,82.0477 193.307063,82.1221987 193.525078,82.2215304 C193.58704,82.2441058 193.658182,82.257651 193.740798,82.257651 C193.844068,82.257651 193.967992,82.2373331 194.12175,82.1966975 C194.387957,82.1086535 195.533108,81.7474476 195.813085,81.6842365 C196.104536,81.6097378 197.437869,81.0972769 198.073554,80.8083121 C198.557776,80.6096488 198.647277,80.3093964 198.557776,79.9594781 C198.468275,79.5960146 198.328287,79.2212634 198.126336,78.3837171 C197.997822,77.8825439 197.896847,77.3836281 197.83259,77.0585428 C197.795872,76.8463343 197.908322,76.6589587 198.137811,76.5212489 C198.507288,76.2954952 199.064947,75.9455769 199.383937,75.7333684 C199.675388,75.5211599 200.274355,75.0199867 200.60482,74.7084465 C200.701205,74.6204026 200.822834,74.5775094 200.939874,74.5775094 C201.008721,74.5775094 201.077567,74.5933121 201.137235,74.6204026 C201.327711,74.7197342 201.568674,74.857444 201.722432,74.9567756 C202.027653,75.1328635 203.399998,75.9839551 203.716693,76.1713307 C203.925528,76.2954952 204.093056,76.3632213 204.235339,76.3632213 C204.276647,76.3632213 204.31566,76.3564487 204.352378,76.345161 C204.595637,76.2571171 204.657599,76.1194073 204.836601,75.8959111 C205.001833,75.6837026 206.780374,73.3561817 207.264596,72.6563452 C207.657023,72.0942184 207.326558,71.8436318 207.136082,71.6698014 C206.881349,71.43276 206.704643,71.2566721 206.119445,70.730666 C205.752262,70.4055806 205.26804,69.9947088 204.937576,69.730577 C204.7471,69.5815795 204.620881,69.369371 204.7471,69.0555734 L204.797587,68.9178636 C204.836601,68.8185319 204.873319,68.730488 204.926101,68.6063234 L204.976589,68.4934466 C205.128052,68.1186954 205.394259,67.5046453 205.561786,66.9425185 C205.623748,66.6806442 205.637518,66.6174332 205.727019,66.305893 L205.864712,66.0553064 C205.967982,65.9311418 206.107971,65.8927637 206.23419,65.881476 C206.704643,65.8430979 207.530804,65.7685992 208.230746,65.7053881 C208.67366,65.66701 209.043138,65.6421771 209.272627,65.6173442 C209.869299,65.5676784 209.933556,65.0687626 209.94503,64.818176 C209.9588,64.4050467 209.970274,63.6916649 209.995518,63.0663271 C210.009287,62.7051212 210.009287,62.2039479 209.995518,61.7163199 C209.995518,61.3551139 209.984043,61.0164833 209.984043,60.7297761 C209.995518,60.1541041 209.51359,60.1044383 209.169357,60.0547725 C208.827418,60.0163943 208.116001,59.9531833 207.556048,59.9035175 C206.97085,59.8673969 206.514167,59.8673969 206.169933,59.8403064 C205.928969,59.8290188 205.738493,59.7048542 205.713249,59.4903882 C205.648992,59.0027601 205.447042,58.1652138 205.332297,57.8288408 C205.217553,57.5037554 204.976589,56.8897053 204.772344,56.539787 C204.682843,56.3772444 204.708087,56.1898688 204.861844,56.0657042 C205.242796,55.7519066 205.942738,55.1897798 206.158458,55.0159494 C206.463679,54.7653628 206.856105,54.5034885 207.351802,54.0768139 L207.544573,53.8781507 C207.709805,53.5891859 207.544573,53.3024787 207.40229,53.0654373 C207.225583,52.7651848 206.7689,52.0134249 206.323691,51.4400105 C205.878481,50.8643385 205.369015,50.2525459 205.013307,49.7762055 C204.84578,49.5481943 204.650714,49.4669229 204.467123,49.4669229 C204.42811,49.4669229 204.389097,49.4691805 204.352378,49.4759531 C204.21239,49.500786 204.09994,49.563997 203.985196,49.6384958 C203.716693,49.8394166 202.915776,50.3631652 202.599081,50.564086 C202.447618,50.6634177 202.229603,50.7898398 202.013883,50.9275495 C201.786689,51.0517141 201.5572,51.1758786 201.366724,51.2774678 C201.295582,51.3135884 201.22444,51.3339062 201.151004,51.3339062 C201.02249,51.3339062 200.889386,51.2729527 200.742513,51.139758 C200.439587,50.8507933 199.916352,50.4399215 199.448194,50.1012909 C199.028229,49.8145837 198.697764,49.6136629 198.443031,49.4646654 C198.112567,49.2637446 198.073554,49.0515361 198.112567,48.8506153 C198.15158,48.6135739 198.227312,48.3516996 198.303043,48.0266142 C198.456801,47.4261093 198.672521,46.7623934 198.862997,45.9383923 C199.014459,45.3130545 198.58302,45.2385557 198.3673,45.1617995 C198.15158,45.0760131 197.031673,44.6990043 196.460245,44.5116288 C196.334026,44.4755082 196.180268,44.4258423 196.003561,44.373919 C195.443608,44.2000886 194.732191,43.9991678 194.298456,43.8998362 C194.206661,43.8817759 194.124045,43.8727457 194.050608,43.8727457" id="Fill-21"></path>
                                <path d="M161.028489,47.9026754 C160.849487,47.9026754 160.675076,47.8959028 160.502959,47.8891302 C159.231588,47.8123739 157.058326,47.2750801 155.69975,44.7127753 C154.327404,42.1369254 156.016445,39.6739523 156.310191,39.2111571 C156.601642,38.7370743 158.102502,36.7098059 161.228145,36.6488524 C161.255683,36.6465949 161.287812,36.6465949 161.326825,36.6465949 C161.948741,36.6465949 163.952181,36.7933348 165.473695,38.7370743 C166.490332,40.0487034 166.641795,41.1232912 166.616551,42.0375937 C166.616551,42.0375937 166.756539,44.5366874 165.014716,46.2140376 C163.506972,47.6543463 162.189704,47.9026754 161.028489,47.9026754 M161.037668,29.7204707 C160.693435,29.7204707 160.592459,29.8717257 160.553446,30.070389 C160.528202,30.2600221 160.516728,30.3841866 160.401983,30.9214805 C160.337726,31.2713988 160.248226,31.6348622 160.186264,31.9102818 C160.14725,32.0592792 160.122007,32.2218219 159.867274,32.285033 C159.575822,32.3459865 159.029638,32.4475756 158.825393,32.5085291 C158.648686,32.5604525 158.240195,32.6597841 157.987757,32.7229952 C157.939564,32.7365404 157.898256,32.743313 157.856948,32.743313 C157.726139,32.743313 157.636639,32.6710718 157.567792,32.5852854 C157.40256,32.3595317 157.147827,32.0344463 157.072095,31.9102818 C156.95735,31.7341939 156.691143,31.3346098 156.512141,31.0208121 C156.408871,30.8492393 156.294127,30.7928009 156.181677,30.7928009 C156.096766,30.7928009 156.016445,30.8221488 155.940713,30.8582694 C155.761712,30.9463134 155.050295,31.3210646 154.708356,31.5084402 C154.352648,31.6845281 153.627462,32.1721561 153.448461,32.2963206 C153.257985,32.4227427 153.170779,32.5717402 153.310767,32.7974939 C153.448461,33.0232476 153.728437,33.5108757 153.831708,33.7095389 C153.957927,33.9465804 154.123159,34.348422 154.21266,34.5854634 C154.263147,34.7231732 154.224134,34.8608829 154.109389,34.9466693 C153.932683,35.0843791 153.652706,35.3349657 153.397973,35.5968401 C153.14324,35.8474267 152.916046,36.1612244 152.762288,36.3734329 C152.688851,36.4863097 152.590171,36.5585509 152.486901,36.5585509 C152.463952,36.5585509 152.441003,36.5540358 152.420349,36.5472632 C152.154141,36.4727645 151.658445,36.2989341 151.479443,36.2357231 C151.300442,36.1860573 150.91949,36.0483475 150.538538,35.8970925 C150.451332,35.8564568 150.3756,35.8383965 150.309048,35.8383965 C150.175945,35.8383965 150.086444,35.9174103 150.017597,36.0596352 C149.916622,36.260556 149.5219,37.0100584 149.395681,37.2741902 C149.280937,37.5360645 148.975716,38.2223558 148.796714,38.6106522 C148.656726,38.899617 148.734752,39.0237815 148.950472,39.1614913 C149.179961,39.3104888 149.572388,39.5362425 149.916622,39.7123304 C150.132342,39.8229497 150.501819,39.9990376 150.729014,40.0983693 C150.894246,40.172868 150.944733,40.3105778 150.91949,40.4482875 C150.882771,40.7372523 150.793271,41.2497132 150.754257,41.4867546 C150.717539,41.7125084 150.678526,42.1865912 150.667051,42.4236326 C150.667051,42.5613424 150.577551,42.6742192 150.423793,42.723885 C150.182829,42.7870961 149.891378,42.87514 149.636645,42.9360935 C149.370437,42.9993046 148.78524,43.1370144 148.454776,43.236346 C148.099067,43.3379352 148.188568,43.5862643 148.213812,43.7758974 C148.25053,43.963273 148.415762,44.7872741 148.46625,45.0762388 C148.530507,45.362946 148.620008,45.8370289 148.734752,46.3517473 C148.808189,46.6813478 149.012434,46.7626191 149.21209,46.7626191 C149.285526,46.7626191 149.356668,46.7513314 149.420925,46.7377862 C149.661889,46.7016656 150.031366,46.6745752 150.437562,46.5639558 C150.70377,46.5007448 150.997516,46.451079 151.213236,46.4262461 L151.529931,46.5639558 C151.605662,46.6881204 151.695163,46.8890412 151.745651,47.0132057 C151.848921,47.2141266 151.936127,47.3382911 152.115128,47.6137106 C152.291835,47.9004179 152.445593,48.1645497 152.560337,48.3383801 L152.521324,48.6521778 C152.356092,48.8756739 152.039397,49.2639704 151.924652,49.426513 C151.75942,49.6635544 151.594188,49.8644752 151.364699,50.2143935 C151.084722,50.6275228 151.263723,50.7765203 151.378468,50.8758519 C151.493213,50.9887288 151.796138,51.2641483 152.305604,51.6772776 C152.801301,52.0768617 152.916046,52.2145715 153.283228,52.5509445 C153.45764,52.7089721 153.579269,52.763153 153.67336,52.763153 C153.783515,52.763153 153.856951,52.6931694 153.932683,52.6277008 C154.072671,52.5148239 154.313635,52.2777825 154.669343,51.8759409 C154.898832,51.6276118 155.204053,51.3273594 155.369285,51.1648167 L155.674506,51.1016056 C155.915469,51.2257702 156.372153,51.4515239 156.691143,51.577946 C156.97112,51.6885653 157.338303,51.8646532 157.579266,51.9526972 C157.797281,52.0271959 157.783512,52.1761934 157.783512,52.3026154 C157.783512,52.578035 157.772037,52.9392409 157.758268,53.1649947 C157.744498,53.3636579 157.70778,53.8648312 157.733024,54.2644153 C157.744498,54.578213 157.898256,54.6030459 158.13922,54.6278788 C158.292978,54.6527117 158.469684,54.6639994 158.67393,54.6775446 C158.788674,54.6910898 158.914893,54.7023775 159.054882,54.7023775 C159.396821,54.7159227 160.261995,54.8649202 160.516728,54.8784654 C160.597049,54.885238 160.675076,54.8897531 160.746217,54.8897531 C160.913744,54.8897531 161.053733,54.8671777 161.152413,54.8152544 C161.303876,54.7272104 161.317645,54.5398348 161.404851,54.2779605 C161.482878,54.002541 161.558609,53.5532911 161.597622,53.2778715 C161.64811,53.002452 161.684828,52.8150764 161.723841,52.6141556 C161.749085,52.4516129 161.86383,52.338736 161.990049,52.3274483 C162.231012,52.3026154 162.60049,52.2258592 162.969968,52.1265275 C163.311906,52.0520288 163.692859,51.9391519 163.922348,51.8894861 C163.947592,51.8849711 163.97054,51.880456 163.995784,51.880456 C164.080695,51.880456 164.163311,51.9210917 164.252812,52.0384836 C164.342313,52.1265275 164.493776,52.338736 164.60852,52.5148239 C164.723265,52.7021995 165.244206,53.4404142 165.35895,53.6029569 C165.473695,53.7654996 165.535657,53.8016202 165.689415,53.8399983 C165.703184,53.8422558 165.719248,53.8422558 165.735312,53.8422558 C165.820223,53.8422558 165.930378,53.8129078 166.058892,53.7406666 C166.210355,53.6526227 166.885053,53.2778715 167.050286,53.2011153 C167.226992,53.1153288 167.988896,52.6277008 168.358374,52.3635689 C168.638351,52.1761934 168.649825,51.9775301 168.537376,51.7653216 C168.434105,51.5508555 168.294117,51.3386471 168.053153,50.8397313 C167.913165,50.5394789 167.786946,50.2392264 167.697445,50.0383056 C167.646957,49.9141411 167.683676,49.7764313 167.81219,49.6635544 C168.01414,49.4761788 168.319361,49.1894716 168.484593,49.002096 C168.649825,48.8395534 168.955046,48.451257 169.120278,48.2142155 C169.179945,48.1261716 169.269446,48.0765058 169.361242,48.0765058 C169.386486,48.0765058 169.414024,48.0810208 169.439268,48.0877935 C169.565487,48.1261716 169.744489,48.1758374 169.859233,48.2142155 C170.074953,48.2887143 171.041103,48.6386325 171.268297,48.7266765 C171.366977,48.7605396 171.451888,48.7785998 171.52762,48.7785998 C171.589582,48.7785998 171.642364,48.7673122 171.688262,48.7379642 C171.828251,48.6634655 171.853495,48.5641338 171.929226,48.4015911 C172.004957,48.2390485 172.805875,46.5639558 173.01012,46.0627826 C173.189122,45.6496533 172.945863,45.5367764 172.805875,45.45099 C172.615399,45.3381131 172.47541,45.2500692 172.043971,44.9994826 C171.763994,44.8504851 171.408285,44.6495643 171.167322,44.5253997 C171.027333,44.450901 170.926358,44.3380241 170.951602,44.1258157 C170.976846,44.0129388 170.98832,43.9384401 171.00209,43.8255632 C171.052577,43.5998095 171.142078,43.2002254 171.167322,42.811929 L171.181091,42.6990521 C171.192566,42.5252218 171.192566,42.4868436 171.206335,42.2746351 C171.217809,42.0737143 171.332554,41.9743827 171.458773,41.9360046 C171.929226,41.7982948 172.984876,41.4867546 173.326815,41.387423 C173.696293,41.2745461 173.671049,40.9494608 173.645805,40.7869181 C173.595318,40.5363315 173.505817,40.0870816 173.44156,39.68524 C173.365828,39.2856559 173.214365,38.6490304 173.124865,38.2223558 C173.067492,37.9469363 172.877016,37.9040431 172.688835,37.9040431 C172.629168,37.9040431 172.569501,37.9085582 172.514423,37.9108157 C172.298704,37.9356486 171.84202,37.9853144 171.484017,38.0236926 C171.116834,38.0869036 170.836857,38.1365694 170.607368,38.17269 C170.593599,38.1749476 170.577535,38.1749476 170.563765,38.1749476 C170.430661,38.1749476 170.322802,38.1230242 170.276904,38.0101473 C170.175928,37.7098949 169.934965,37.2109792 169.806451,37.0100584 C169.705476,36.8226828 169.464512,36.4727645 169.29928,36.2853889 L169.28551,35.9738488 C169.475986,35.7232621 169.845464,35.2852999 169.960209,35.1475901 C170.111671,34.9466693 170.315917,34.7344608 170.582124,34.3980878 C170.797844,34.1226683 170.621138,33.9217474 170.46738,33.7592048 C170.315917,33.5966621 169.934965,33.1857903 169.579257,32.8855379 C169.223548,32.5717402 168.828827,32.2602001 168.537376,32.0096134 C168.427221,31.9170544 168.321656,31.8786763 168.22527,31.8786763 C168.085282,31.8786763 167.965947,31.9554325 167.876447,32.0592792 C167.722689,32.2105342 167.302724,32.6462389 167.126017,32.8223268 C166.947015,32.9848695 166.667039,33.2467438 166.451319,33.4228317 C166.398536,33.4679825 166.336574,33.4928154 166.265432,33.4928154 C166.198881,33.4928154 166.125444,33.47024 166.045123,33.4228317 C165.804159,33.2715767 165.434682,33.0842011 165.092743,32.9352037 C164.787522,32.8087816 164.558033,32.7342829 164.367557,32.6597841 C164.151837,32.5852854 164.08758,32.4588633 164.08758,32.3211536 C164.076105,32.1721561 164.08758,31.9960682 164.101349,31.7838597 C164.112824,31.3842756 164.163311,30.9463134 164.163311,30.4090195 C164.177081,29.9846025 163.897104,29.9958902 163.745641,29.9710573 C163.605653,29.9597696 162.855223,29.8717257 162.460502,29.8220599 C162.093319,29.7836817 161.393377,29.7204707 161.037668,29.7204707" id="Fill-22"></path>
                                <path d="M144.664532,91.7117653 C141.72707,91.7117653 138.755185,90.8832492 136.724206,88.747619 C133.926732,85.8218507 132.529143,81.8847058 133.495292,77.0964694 C134.461442,72.2946877 138.43849,70.2312987 139.989837,69.4569635 C141.091385,68.8925792 143.581343,68.48848 145.573309,68.48848 C146.362752,68.48848 147.074169,68.551691 147.590519,68.6939159 C148.976634,69.0686671 153.194646,69.7820488 155.97835,75.7690375 C157.809673,79.195979 156.221608,83.7720069 155.585923,85.0475155 C154.936469,86.3343117 151.707555,90.6236324 147.907214,91.38668 C146.867628,91.5943734 145.768375,91.7117653 144.664532,91.7117653 M146.794192,55.2570544 C146.569292,55.2570544 146.328329,55.3450983 146.167686,55.839499 C145.963441,56.415171 145.837222,56.9411772 145.759195,57.2775502 C145.697233,57.4897587 145.492988,58.2528063 145.392013,58.7156014 C145.341525,58.9526428 145.187767,59.1151855 144.997291,59.1287307 C144.552082,59.1671088 143.73969,59.2167747 143.319725,59.2280624 C142.709284,59.2528953 141.768378,59.3296515 141.463158,59.4041503 C141.297925,59.4402709 140.955986,59.5170271 140.76551,59.5666929 C140.740267,59.571208 140.715023,59.5734655 140.689779,59.5734655 C140.529136,59.5734655 140.35702,59.4763914 140.269814,59.3025611 C140.040324,58.8916893 139.673142,58.1918528 139.558397,57.9412661 C139.379396,57.566515 139.138432,56.9660101 139.023687,56.7154234 C138.941071,56.5032149 138.785019,56.1352364 138.424721,56.1352364 C138.33981,56.1352364 138.243424,56.1555542 138.133269,56.2029625 C137.421853,56.4896697 136.455703,56.9411772 135.973776,57.1037198 C135.478079,57.2662625 134.257197,57.7042247 134.105734,57.7538906 C133.951976,57.8035564 133.520536,58.0789759 133.697243,58.6794808 C133.890014,59.2912734 134.041477,59.7405233 134.117208,60.0046552 C134.181465,60.1920307 134.385711,60.9799112 134.51193,61.478827 C134.576187,61.7158684 134.550943,61.903244 134.29621,62.0793319 C133.926732,62.3299185 133.291047,62.7407903 132.974352,62.9304234 C132.49013,63.2171306 131.512506,63.966633 131.372517,64.093055 C131.283017,64.1540086 131.028284,64.3662171 130.863051,64.517472 C130.785025,64.5874557 130.695524,64.6213188 130.599139,64.6213188 C130.509638,64.6213188 130.417842,64.5919708 130.330636,64.5287597 C129.871658,64.2036744 129.059266,63.605427 128.767815,63.4180514 C128.34785,63.1426319 128.054104,62.966544 127.838384,62.8288342 C127.70987,62.7588506 127.556112,62.6437162 127.374815,62.6437162 C127.237122,62.6437162 127.081069,62.7114423 126.911247,62.9168782 C126.339819,63.5173831 125.768391,64.3549294 125.499889,64.6416366 C125.233681,64.941889 124.471777,65.9171451 124.242288,66.1541865 C124.026568,66.4047732 123.847566,66.7185708 124.116069,67.0549439 C124.558983,67.5674048 124.928461,67.8428244 125.323182,68.2175755 C125.614633,68.4929951 126.098856,68.9693354 126.401781,69.2560427 C126.594552,69.4434182 126.594552,69.6307938 126.479808,69.8317146 C126.236549,70.2561316 125.818879,71.0191792 125.564146,71.6061389 C125.309413,72.1818109 125.004192,73.0577353 124.827485,73.5566511 C124.756344,73.7756322 124.588817,73.9110844 124.393751,73.9110844 C124.377686,73.9110844 124.361622,73.9088269 124.343263,73.9065693 C123.836092,73.8569035 122.906661,73.7936925 122.539478,73.7688595 C121.993294,73.7440266 121.394327,73.707906 121.178607,73.707906 L121.10976,73.707906 C120.880271,73.707906 120.513088,73.737254 120.453421,74.3693644 C120.391459,75.069201 120.150495,76.4079206 120.086238,76.796217 C120.021981,77.195801 119.820031,78.1575119 119.781018,78.4080985 C119.73053,78.6586852 119.680043,79.1079351 120.453421,79.2704777 C121.242864,79.4330204 121.839536,79.5594425 122.220488,79.6339412 C122.463747,79.6836071 122.945674,79.8077716 123.276138,79.8958155 C123.480384,79.9590266 123.620372,80.1215693 123.620372,80.3202325 C123.606603,80.8214058 123.606603,81.7831167 123.67086,82.2459118 C123.732822,82.6725863 123.950837,83.7855522 124.063286,84.3973448 C124.116069,84.684052 123.97608,84.8849728 123.810848,84.9594715 C123.35187,85.1965129 122.550952,85.5983546 122.270976,85.7225191 C121.839536,85.9347276 121.307121,86.1604813 121.027144,86.2846459 C120.747167,86.4110679 120.416703,86.5984435 120.568166,87.0476934 C120.733398,87.4969433 121.052388,88.1990374 121.472353,89.2104141 C121.890024,90.2240483 121.96805,90.7613422 122.133282,91.0999727 C122.254911,91.3618471 122.404079,91.5266473 122.679466,91.5266473 C122.743723,91.5266473 122.814865,91.5176171 122.895186,91.4995568 C123.326626,91.3979677 124.152787,91.1248057 124.471777,91.0119288 C124.724215,90.9238848 125.538902,90.6981311 125.984111,90.5852543 C126.023124,90.5739666 126.064432,90.5694515 126.103445,90.5694515 C126.234254,90.5694515 126.348999,90.6326625 126.42932,90.7477969 C126.707002,91.2241373 127.331213,92.1993934 127.611189,92.6125227 C127.888871,92.9985615 128.588813,93.8112749 128.933047,94.1882837 C129.045497,94.3237359 129.045497,94.5246567 128.958291,94.6759117 C128.689789,95.1003287 128.143604,95.8994969 127.91641,96.1749164 C127.611189,96.5632128 127.266956,97.0372956 127.140736,97.1885506 C127.025992,97.3375481 126.821746,97.7642226 127.202699,98.0622175 C127.647908,98.4392262 127.737408,98.5001797 128.602583,99.1142299 C129.465462,99.7260224 130.420137,100.638067 130.5716,100.76449 C130.647331,100.832216 130.803384,100.915745 130.99845,100.915745 C131.163682,100.915745 131.356453,100.854791 131.549224,100.6629 C131.982959,100.252029 132.604874,99.5521921 132.820594,99.3264384 C132.960583,99.1638957 133.405792,98.7394787 133.685769,98.4640591 C133.775269,98.3760152 133.880834,98.3173192 134.002464,98.3173192 C134.069015,98.3173192 134.142452,98.3353795 134.220478,98.3760152 C134.523404,98.5385579 135.058114,98.8139774 135.46431,99.0261859 C136.150483,99.3512713 136.73568,99.6131456 137.194658,99.7892335 C137.435622,99.8750199 137.752317,99.9766091 137.993281,100.051108 C138.211296,100.114319 138.351284,100.326527 138.323745,100.563569 C138.287027,100.913487 138.22277,101.401115 138.186052,101.751033 C138.121795,102.326705 138.121795,103.301961 138.108025,103.676713 C138.096551,104.051464 138.248014,104.202719 138.617491,104.277217 C138.984674,104.351716 139.253177,104.376549 139.824605,104.453305 C140.384558,104.527804 141.095975,104.651969 141.426439,104.701634 C141.756904,104.740013 142.785015,104.88901 143.11548,104.913843 C143.145313,104.918358 143.172852,104.920616 143.200391,104.920616 C143.43447,104.920616 143.643305,104.778391 143.700677,104.478138 C143.764934,104.139508 143.994423,103.089753 144.056386,102.751122 C144.120642,102.414749 144.272105,101.800699 144.375376,101.464326 C144.451107,101.213739 144.565852,101.039909 144.857303,101.039909 C145.252024,101.026364 145.87394,101.012819 146.472907,100.951865 C147.436761,100.850276 147.907214,100.814155 148.276692,100.739657 C148.480937,100.701279 148.811402,100.638067 149.038596,100.588402 C149.086789,100.577114 149.128097,100.572599 149.169405,100.572599 C149.318573,100.572599 149.426433,100.647098 149.497574,100.814155 C149.59855,101.064742 149.789026,101.489159 149.942784,101.825532 C150.220465,102.45087 150.729931,103.365172 150.844676,103.577381 C150.959421,103.764757 151.08564,103.902466 151.264641,103.965677 C151.326603,103.985995 151.386271,103.997283 151.443643,103.997283 C151.549208,103.997283 151.647888,103.96342 151.746569,103.913754 C152.051789,103.776044 153.513636,103.20263 153.830331,103.089753 C154.160795,102.963331 155.496422,102.475703 155.737386,102.376371 C155.902618,102.301872 156.06785,102.202541 156.143582,102.064831 C156.221608,101.913576 156.182595,101.739746 156.118338,101.563658 C156.028837,101.276951 155.787873,100.414571 155.725911,100.089486 C155.686898,99.8750199 155.471178,99.1638957 155.317421,98.7123882 C155.241689,98.4753468 155.317421,98.2134725 155.507897,98.089308 C155.97835,97.7755103 156.829754,97.2495041 157.199232,97.001175 C157.619197,96.7122103 158.482077,96.0372066 158.927286,95.6624555 C159.014492,95.5902143 159.094813,95.5540937 159.177429,95.5540937 C159.264635,95.5540937 159.351841,95.5924718 159.448226,95.6624555 C159.716729,95.849831 160.148168,96.1636287 160.515351,96.4119578 C161.17628,96.84992 161.750003,97.1637177 162.055224,97.3510933 C162.192917,97.4368797 162.312251,97.4888031 162.426996,97.4888031 C162.566985,97.4888031 162.702383,97.4143043 162.867615,97.2382164 C163.324299,96.7754213 163.794752,96.1117054 164.519938,95.2877043 C165.245123,94.4749909 165.575588,94.0618616 165.752295,93.8496531 C166.007028,93.5381129 165.95654,93.2626934 165.626076,92.9737286 C165.180867,92.5989775 164.965147,92.4251471 164.278974,91.7862641 C163.94851,91.4747239 163.654763,91.1993044 163.464287,90.9983836 C163.262337,90.7997203 163.248567,90.5107555 163.388556,90.2601689 C163.73279,89.6483763 164.265205,88.4721994 164.405193,88.1493716 C164.444206,88.0726153 164.480924,87.9732837 164.533707,87.8491192 C164.68517,87.4359898 164.90089,86.8354849 165.00416,86.5487777 C165.079891,86.3614021 165.141853,86.23498 165.371343,86.23498 C165.419535,86.2327225 165.474613,86.2327225 165.53428,86.2327225 C165.926706,86.2327225 166.527968,86.2665856 166.947933,86.3094788 C167.620337,86.386235 168.421254,86.4471885 168.715,86.4720215 C168.726475,86.474279 168.737949,86.474279 168.749424,86.474279 C169.027106,86.474279 169.263479,86.3320541 169.325441,85.9731057 C169.387404,85.5848093 169.731637,83.9480948 169.768356,83.5349655 C169.821138,83.1218362 169.997845,82.0337033 170.036858,81.6589521 C170.062102,81.3835326 170.09882,81.2706557 170.011614,81.1464912 C169.922113,81.0087814 169.743112,80.9342827 169.476904,80.8959045 C169.235941,80.8597839 168.116033,80.6091973 167.620337,80.4963204 C167.354129,80.4331094 166.90892,80.3337778 166.592225,80.2705667 C166.362736,80.2209009 166.197504,80.0335253 166.186029,79.7964839 C166.17226,79.2591901 166.197504,78.2207229 166.121772,77.7466401 C166.046041,77.2702998 165.892283,76.283756 165.777538,75.7577498 C165.715576,75.5071632 165.816552,75.3333328 166.020797,75.2452889 C166.516494,75.0330804 167.393142,74.644784 167.595093,74.5454524 C167.87507,74.4077426 168.701231,73.9697804 168.854989,73.8817364 C169.020221,73.7824048 169.325441,73.5069852 169.196928,73.1435217 C169.006452,72.5452744 168.726475,71.644517 168.510755,71.1072232 C168.308804,70.581217 167.838351,69.4434182 167.748851,69.2424974 C167.647875,69.0438342 167.595093,68.8429133 167.379373,68.7300365 C167.292167,68.6871433 167.214141,68.669083 167.131525,68.669083 C166.996126,68.669083 166.846958,68.7164913 166.6037,68.7932475 C166.236517,68.9174121 165.359868,69.1431658 165.054647,69.2176645 C164.838928,69.2695879 164.164229,69.4817964 163.808521,69.6059609 C163.764918,69.6217637 163.725905,69.6307938 163.686892,69.6307938 C163.579032,69.6307938 163.491826,69.5675828 163.427569,69.4569635 C163.237093,69.156711 162.803358,68.429784 162.576164,68.1046987 C162.332906,67.7683256 161.876222,67.181366 161.470026,66.7050256 C161.240537,66.4296061 161.024817,66.181277 160.873354,66.0051891 C160.75861,65.8674793 160.74484,65.7049366 160.873354,65.517561 C161.114318,65.1540975 161.596245,64.4294281 161.811965,64.117888 C162.091942,63.6912134 162.472894,63.2035854 162.626652,63.0049221 C162.727627,62.8423794 162.856141,62.7407903 162.842372,62.5037489 C162.828602,62.2667074 162.651896,62.1289977 162.346675,61.903244 C162.055224,61.6797478 161.114318,60.8783221 160.618621,60.5035709 C160.122925,60.1423649 159.512483,59.6547369 159.372495,59.5531477 C159.237096,59.4447859 158.970889,59.2528953 158.791887,59.2528953 L158.775823,59.2528953 C158.596821,59.2528953 158.445358,59.4154379 158.176856,59.6660246 L157.045474,60.7789904 C156.894011,60.9415331 156.448802,61.4043282 156.157351,61.6910355 L156.056376,61.7542465 C155.976055,61.8242301 155.893439,61.8603507 155.808528,61.8603507 C155.755745,61.8603507 155.702962,61.844548 155.647885,61.8174575 C155.230215,61.5781586 154.351271,61.0905306 153.463148,60.7157794 C152.712718,60.4042392 152.14129,60.2281513 151.785582,60.1423649 C151.556093,60.0791539 151.455117,59.9166112 151.480361,59.6908575 C151.542323,59.2280624 151.631824,58.415349 151.657068,57.990932 C151.707555,57.3791394 151.721325,56.7650893 151.721325,56.5032149 C151.732799,56.2413406 151.682312,56.0020417 151.186615,55.8891648 C150.690918,55.7785455 149.038596,55.6408357 148.657644,55.5527918 C148.276692,55.4647478 147.15908,55.3022051 146.915821,55.2660845 C146.876808,55.2615695 146.8355,55.2570544 146.794192,55.2570544" id="Fill-23"></path>
                            </g>
                        </g>
                    </g>
                </g>
            </g>
        </g>
    </g>
</svg>
