<?xml version="1.0" encoding="UTF-8"?>
<svg width="85px" height="79px" viewBox="0 0 85 79" version="1.1" xmlns="http://www.w3.org/2000/svg" xmlns:xlink="http://www.w3.org/1999/xlink">
    <!-- Generator: Sketch 40.3 (33839) - http://www.bohemiancoding.com/sketch -->
    <title>Shape</title>
    <desc>Created with Sketch.</desc>
    <defs></defs>
    <g id="Page-1" stroke="none" stroke-width="1" fill="none" fill-rule="evenodd">
        <g id="Screen1" transform="translate(-598.000000, -318.000000)" fill="#BD0118">
            <path d="M681.641677,387.699087 L645.49395,321.166147 C644.960293,320.189822 644.222867,319.417732 643.280023,318.851036 C642.339487,318.283844 641.319324,318 640.22118,318 C639.123037,318 638.102708,318.284341 637.161678,318.851036 C636.220648,319.417732 635.482727,320.189822 634.949565,321.166147 L598.801013,387.699087 C597.70254,389.684839 597.733864,391.669432 598.894984,393.654025 C599.428971,394.567127 600.158484,395.292047 601.084017,395.8268 C602.01021,396.362545 603.006304,396.630998 604.073288,396.630998 L676.369897,396.630998 C677.438035,396.630998 678.433799,396.362545 679.359497,395.8268 C680.28602,395.292212 681.014378,394.567127 681.54853,393.654025 C682.709651,391.668274 682.741304,389.684839 681.641677,387.699087 L681.641677,387.699087 Z M646.247533,382.9737 C646.247533,383.41428 646.097508,383.784188 645.800758,384.083259 C645.502853,384.382992 645.149719,384.531782 644.741192,384.531782 L635.704136,384.531782 C635.296269,384.531782 634.943135,384.382992 634.64523,384.083259 C634.346995,383.784188 634.19796,383.41428 634.19796,382.9737 L634.19796,373.995283 C634.19796,373.554703 634.34716,373.184796 634.64523,372.885725 C634.943135,372.585992 635.295774,372.437201 635.704136,372.437201 L644.740532,372.437201 C645.149224,372.437201 645.502193,372.585992 645.800263,372.885725 C646.097508,373.184796 646.247038,373.554703 646.247038,373.995283 L646.247038,382.9737 L646.247533,382.9737 L646.247533,382.9737 Z M646.154056,365.301703 C646.121413,365.616497 645.956552,365.876011 645.659306,366.081075 C645.360742,366.285972 644.992276,366.387924 644.55292,366.387924 L635.844928,366.387924 C635.405902,366.387924 635.029358,366.28531 634.715791,366.081075 C634.401235,365.875349 634.244616,365.616497 634.244616,365.300544 L633.444543,343.706861 C633.444543,343.265454 633.601656,342.934771 633.915388,342.714481 C634.323255,342.368075 634.699799,342.19479 635.045349,342.19479 L645.400144,342.19479 C645.746023,342.19479 646.122238,342.367413 646.530105,342.714481 C646.843672,342.934771 647.000126,343.234173 647.000126,343.612191 L646.154056,365.301703 L646.154056,365.301703 Z" id="Shape"></path>
        </g>
    </g>
</svg>
